<svg xmlns="http://www.w3.org/2000/svg" xml:space="preserve" x="0" y="0" style="enable-background:new 0 0 1280 296" version="1.1" viewBox="0 0 1280 296"><style>.st0{fill:#fff}</style><path d="M329.3 140.8H405v17.3h-53.4V192h42.5v16.9h-42.5v46.8h-22.3V140.8zM429.9 136.1c6.5 0 11.7 4.8 11.7 11.5 0 6.6-5 11.4-11.6 11.4-6.5 0-12-4.9-12-11.5 0-6.7 5.4-11.4 11.9-11.4zm-10.1 35.7h20.1v83.9h-20.1v-83.9zM462.7 171.6h20.1V185c5.4-10.4 16.7-15.1 28.4-15.1 20.2 0 29.3 14.2 29.3 33.3v52.6H520v-50.6c0-11.8-5.3-18.7-17.2-18.7-12.6 0-20.1 7.8-20.1 19.9v49.4h-20.1v-84.2zM609.7 245.4c-6.4 8.5-15.7 11.8-26.1 11.8-15.8 0-28.2-8-28.2-24.5 0-23.3 24.6-27 44.2-27h9.9v-1.3c0-12-2.8-19.6-16.4-19.6-8.2 0-15.7 4.2-18.7 12l-15.6-6.7c5.6-14.8 21.3-20.2 36.3-20.2 19.9 0 34.3 9.6 34.3 30.9v54.9h-19.8v-10.3zm-10.3-27.3c-9.3 0-24 1.1-24 13.8 0 8.1 5.9 11.1 13.4 11.1 10.2 0 20.7-5.3 20.7-16.7v-8.2h-10.1zM650.7 171.6h20.1V185c5.4-10.4 16.7-15.1 28.4-15.1 20.2 0 29.3 14.2 29.3 33.3v52.6h-20.4v-50.6c0-11.8-5.3-18.7-17.2-18.7-12.6 0-20.1 7.8-20.1 19.9v49.4h-20.1v-84.2zM825.4 231.9c-5.6 17.6-21.3 25.3-38.8 25.3-26.7 0-42.6-17.9-42.6-43.9 0-25 17.8-43.6 43.1-43.6 17 0 31.7 7.1 37.9 23.6l-16.2 7.1c-3.4-9.4-11.5-14.8-21.7-14.8-16.4 0-22.4 14.2-22.4 28.6 0 14.8 6.5 27.6 22.8 27.6 11.5 0 19.3-6.4 22.8-16.9l15.1 7zM916.4 237.4c-7 14.8-22.1 19.9-37.5 19.9-26.5 0-43.2-17.7-43.2-43.9 0-24.6 17-43.6 42.3-43.6 27.2 0 40.4 15.9 40.4 48.3h-62.2c0 14.2 8.2 24.6 23.5 24.6 9.1 0 16.6-3.7 21-12.2l15.7 6.9zm-18-32.5c-.6-12.7-8.3-20.5-20.2-20.5-12.6 0-20 8.9-21.7 20.5h41.9zM970.6 140.8h39.9c24.2 0 43.1 9.7 43.1 36.2 0 29.1-23 35.4-47.6 35.4h-13.2v43.3h-22.3V140.8zm39.8 55.6c13.7 0 21.5-5.7 21.5-19.5 0-14.4-8.5-19.1-21.5-19.1h-17.5v38.7h17.5zM1069.2 137.6l20.1-8.7v126.8h-20.1V137.6zM1168.2 242.5c-5.3 10.2-16.1 14.8-27.7 14.8-19.3 0-29.5-12.7-29.5-31.8v-53.8h20.1V223c0 11.5 5.3 18.5 17 18.5 12.6 0 20.2-8.1 20.2-20.1v-49.8h20v84h-20v-13.1zM1219.1 230.6c3.1 8.2 11.7 12.2 20.8 12.2 6.5 0 14.6-2 14.6-10 0-8.4-9.1-10.4-19.5-12.6-13.5-2.8-28.6-6.1-28.6-25 0-17.3 16.1-25.5 31.3-25.5 13.3 0 28.6 5 34.1 18.3l-14.9 6.4c-3.3-7.5-11.5-10.3-18.4-10.3-6.7 0-13.1 2.7-13.1 9.5 0 7.7 8.2 9.3 18.4 11.3 13.7 2.7 30.1 5.8 30.1 25.4 0 19.8-16.6 26.8-34.1 26.8-14.8 0-30.8-5-36-20.1l15.3-6.4zM329.5 104.4l37-53.4h-33.2V40.5h50.6v5.2l-36.1 53.4h35v10.5h-53.3v-5.2zM415.5 58c15.4 0 27.2 10.8 27.2 26.3 0 15.9-12.4 26.4-27.7 26.4-15.4 0-27.8-10.7-27.8-26.1 0-16 13.1-26.6 28.3-26.6zm14.2 26.3c0-9.3-4.7-17.1-14.7-17.1-10.2 0-14.3 8.1-14.3 17.4 0 9 4.8 16.6 14.6 16.6 10.2.1 14.4-8 14.4-16.9zM451.6 36.1h12.1v31c3.3-6.3 9.9-9.1 16.9-9.1 12.1 0 18.2 8.5 18.2 20v31.7h-12.2V79.2c0-7.3-3.8-11.3-10.8-11.3-7.8 0-12.1 4.8-12.1 12v29.7h-12.1V36.1zM534.9 58c15.4 0 27.2 10.8 27.2 26.3 0 15.9-12.4 26.4-27.7 26.4-15.4 0-27.8-10.7-27.8-26.1 0-16 13.1-26.6 28.3-26.6zm14.2 26.3c0-9.3-4.7-17.1-14.7-17.1-10.2 0-14.3 8.1-14.3 17.4 0 9 4.8 16.6 14.6 16.6 10.1.1 14.4-8 14.4-16.9z"/><path d="M262.1 73.4 141.4 3.8c-1.8-1-3.9-1-5.7 0L15.1 73.4c-1.8 1-2.8 2.9-2.8 4.9v139.3c0 2 1.1 3.9 2.8 4.9l120.6 69.7c.9.5 1.9.8 2.8.8 1 0 2-.3 2.8-.8L262 222.6c1.8-1 2.8-2.9 2.8-4.9V78.4c.1-2.1-1-4-2.7-5zM138.6 15.2l109.3 63.1-61.1 35.3-45.5-26.2c-1.8-1-3.9-1-5.7 0l-45.4 26.2-60.9-35.3 109.3-63.1zm-115 73L87.5 125l45.4 26.2v126.3L23.6 214.4V88.2zm202.3 142.2v-78.8l1.6 1.9c1.1 1.3 2.7 2 4.3 2 1.3 0 2.6-.4 3.7-1.3 2.4-2 2.7-5.6.7-8L224.9 133c-.3-.4-.6-.8-.9-1.1-2.3-2.1-5.9-1.9-8 .4L203.5 146c-2.1 2.3-1.9 5.9.4 8 1.1 1 2.4 1.5 3.8 1.5 1.5 0 3.1-.6 4.2-1.9l2.6-2.9v86.2l-28.8 16.6V221l1.5 1.8c1.1 1.3 2.7 2 4.3 2 1.3 0 2.6-.4 3.7-1.3 2.4-2 2.7-5.6.7-8l-11.1-13.1c-.3-.4-.6-.8-.9-1.1-2.3-2.1-5.9-1.9-8 .4l-12.5 13.7c-2.1 2.3-1.9 5.9.4 8 1.1 1 2.4 1.5 3.8 1.5 1.5 0 3.1-.6 4.2-1.9l2.7-2.9-.1 40-30.2 17.4V147.6c-.2-2.2-1.5-4-3.4-4.8l-39.1-22.6 36.9-21.3 37 21.3-20 11.6c-2.7 1.6-3.6 5-2.1 7.7 1 1.8 3 2.8 4.9 2.8 1 0 1.9-.2 2.8-.8l92.4-53.4v126.2l-27.7 16.1z" style="fill:#089949"/></svg>