<svg xmlns="http://www.w3.org/2000/svg" viewBox="0 0 512 512" xml:space="preserve"><path fill="#E1E8F8" d="M256.4.2C115 .2.4 114.8.4 256.2s114.6 256 256 256 256-114.6 256-256S397.8.2 256.4.2z"/><path fill="#FE5801" d="M320.5 442h-110c-24 0-43.5-19.5-43.5-43.5V135.2c0-24 19.5-43.5 43.5-43.5h110c24 0 43.5 19.5 43.5 43.5v263.3c0 24-19.5 43.5-43.5 43.5z"/><path fill="#FEFEFE" d="M352.4 134.5v261.6c0 14.8-12 26.7-26.7 26.7H205.3c-14.8 0-26.7-12-26.7-26.7V134.5c0-14.8 12-26.7 26.7-26.7h120.4c14.7 0 26.7 12 26.7 26.7z"/><path fill="#99C7FF" d="m324.4 110.1 3-4 3.1 4 3-2.2-2.8-4 4.5-1.9-1.3-3.6-4.5 1.5V95h-3.9v4.9l-4.6-1.5-1.3 3.6 4.5 1.7-2.9 4.2z"/><path fill="#D9ECFF" d="M210.6 217.5h130.7v49.8H210.6zM189.6 286h130.7v49.8H189.6z"/><path fill="#8FC4EF" d="M352.4 134.5v19.2H178.6v-19.2c0-14.8 12-26.7 26.7-26.7h120.4c14.7 0 26.7 12 26.7 26.7z"/><path fill="#3185FF" d="M433.3 67.2H306.2c-2.3 0-4.2 1.9-4.2 4.2v6.7c0 4.4.1 8.7.1 13.1.2 26 .3 52 .5 77.9 0 1 .4 1.9 1 2.6 1.5 1.8 4.2 2 5.9.5l12.8-11.2c.8-.7 1.7-1 2.7-1h108.2c2.3 0 4.2-1.9 4.2-4.2V71.3c0-2.2-1.8-4.1-4.1-4.1zm-25.1 31.2 4.7 1.5V95h3.9v4.9l4.5-1.5 1.4 3.6-4.5 1.9 2.8 4-3 2.3-3.1-4-3 4-3.2-2.3 2.9-4.2-4.5-1.7 1.1-3.6zM395.4 95h3.9v4.9l4.5-1.5 1.4 3.6-4.5 1.9 2.8 4-3 2.3-3.1-4-3 4-3.2-2.3 2.9-4.2-4.5-1.7 1.3-3.6 4.7 1.5V95h-.2zm-9.4 12.9-3 2.3-3.1-4-3 4-3.2-2.3 2.9-4.2-4.5-1.7 1.3-3.6 4.7 1.5V95h3.9v4.9l4.5-1.5 1.4 3.6-4.5 1.9 2.6 4zm-49-5.9 1.3-3.6 4.7 1.5V95h3.9v4.9l4.5-1.5 1.4 3.6-4.5 1.9 2.8 4-3 2.3-3.1-4-3 4-3.2-2.3 2.9-4.2-4.7-1.7zm31.5 5.9-3 2.3-3.1-4-3 4-3.2-2.3 2.9-4.2-4.5-1.7 1.3-3.6 4.7 1.5V95h3.9v4.9l4.5-1.5 1.4 3.6-4.5 1.9 2.6 4zm-48.9-5.9 1.3-3.6 4.7 1.5V95h3.9v4.9l4.5-1.5 1.4 3.6-4.5 1.9 2.8 4-3 2.3-3.1-4-3 4-3.2-2.3 2.9-4.2-4.7-1.7zm62.4 35.6h-55.1c-3 0-5.4-2.4-5.4-5.4s2.4-5.4 5.4-5.4H382c3 0 5.4 2.4 5.4 5.4s-2.4 5.4-5.4 5.4z"/><path fill="#99C7FF" d="M387.4 132.2c0-3-2.4-5.4-5.4-5.4h-55.1c-3 0-5.4 2.4-5.4 5.4s2.4 5.4 5.4 5.4H382c3 0 5.4-2.4 5.4-5.4zM341.9 110.1l3-4 3.1 4 3-2.2-2.8-4 4.5-1.9-1.4-3.6-4.5 1.5V95H343v4.9l-4.7-1.5-1.3 3.6 4.6 1.7-2.9 4.2zM368.8 98.4l-4.5 1.5V95h-3.8v4.9l-4.7-1.5-1.3 3.6 4.5 1.7-2.8 4.2 3.2 2.2 3-4 3.1 4 3-2.2-2.8-4 4.5-1.9zM386.3 98.4l-4.5 1.5V95h-3.9v4.9l-4.6-1.5-1.3 3.6 4.5 1.7-2.8 4.2 3.2 2.2 3-4 3 4 3.1-2.2-2.8-4 4.5-1.9zM390.8 98.4l-1.3 3.6 4.5 1.7-2.8 4.2 3.1 2.2 3.1-4 3 4 3.1-2.2-2.8-4 4.5-1.9-1.4-3.6-4.5 1.5V95h-3.9v4.9zM408.6 107.9l3.2 2.2 3-4 3 4 3.1-2.2-2.8-4 4.5-1.9-1.4-3.6-4.5 1.5V95h-3.8v4.9l-4.7-1.5-1.3 3.6 4.5 1.7z"/><path fill="#D9ECFF" d="M225.4 408.1h77.3v4.8h-77.3z"/></svg>